<?xml version="1.0" encoding="UTF-8"?>
<svg id="Layer_1" xmlns="http://www.w3.org/2000/svg" version="1.1" viewBox="0 0 2098.6 515.2">
  <!-- Generator: Adobe Illustrator 30.2.1, SVG Export Plug-In . SVG Version: 2.1.1 Build 1)  -->
  <defs>
    <style>
      .st0 {
        stroke: #000;
        stroke-miterlimit: 10;
        stroke-width: 1px;
      }
    </style>
  </defs>
  <polygon class="st0" points="633.2 164 567 236.2 546.5 258.5 480.3 330.8 100.9 330.8 167.1 258.5 452.9 258.5 473.4 236.2 187.6 236.2 253.8 164 633.2 164"/>
  <g>
    <polygon class="st0" points="1059 69.5 992.8 141.7 907.3 234.9 813.7 234.9 899.2 141.7 274.3 141.7 340.5 69.5 1059 69.5"/>
    <polygon class="st0" points="735.7 258.5 1190.5 258.5 1124.3 330.8 505.5 330.8 658.4 164 752.1 164 665.4 258.5 735.7 258.5 735.7 258.5"/>
    <polygon class="st0" points="1997.7 330.8 1562 330.8 1628.2 258.6 1837.9 258.6 1731.9 143 1707.6 143 1535.4 330.8 1146.8 330.8 1213 258.6 1279.3 258.6 1386.4 141.7 1111.7 141.7 1026.3 234.9 932.6 234.9 1084.3 69.5 1658.7 69.5 1592.4 141.7 1480.1 141.7 1478.9 143 1372.9 258.6 1508 258.6 1681.4 69.5 1758.1 69.5 1997.7 330.8"/>
  </g>
  <g>
    <path d="M100.9,382.6h35.7l1.9,29.1,25.6-29.1h45.7l-61.1,63.8h-40.7l-7.1-63.8Z"/>
    <path d="M495,446.4h-41.2l27-63.8h41.2l-27,63.8Z"/>
    <path d="M767.2,446.4l5.5-12.9h47.7c.3,0,.5-.3.8-.8l.4-1.1c0-.1,0-.3,0-.5l-32.2-21.7c-.8-.6-1.4-1.3-1.7-2.2s-.5-2-.5-3.2c0-2,.3-4.2,1-6.5.7-2.3,1.4-4.3,2.2-5.9l1.7-3.9c.6-1.4,1.5-2.6,2.8-3.5,1.3-1,2.6-1.5,3.9-1.5h94l-5.5,12.9h-54.9c-.7,0-1.2.5-1.6,1.6-.1,1,0,1.6.4,1.6l38.3,26.1c.8.6,1.4,1.3,1.7,2.2s.5,1.9.5,3c0,1.6-.3,3.1-1,4.6l-3.2,7.7c-1.2,2.8-3.2,4.3-5.9,4.3h-94.7Z"/>
    <path d="M1245.9,446.4h-97.3c-1.7,0-3.1-.4-4.1-1.2-1-.8-1.7-1.8-2.1-2.9-.4-1.1-.5-2.4-.4-3.7.1-1.4.4-2.6.9-3.8l22.1-52.1h41.2l-20.6,48.6c-.2.6-.3,1.1-.2,1.6.1.5.5.7,1.1.7h23.3l21.6-50.9h41.3l-27,63.8Z"/>
    <path d="M1626,446.4h-41.3l9.3-21.8h-25.3l-9.3,21.8h-41.2l22-52c.5-1.1,1.3-2.4,2.3-3.7,1-1.4,2.2-2.7,3.6-3.8,1.4-1.2,2.9-2.2,4.6-3,1.7-.8,3.4-1.2,5.1-1.2h97.3l-27,63.8ZM1574,411.7h25.3l6.9-16.2h-23.3c-.7,0-1.2.2-1.7.7-.5.5-.9,1-1.2,1.6l-5.9,13.9Z"/>
    <path d="M1898.1,446.4l27-63.8h41.2l-21.6,50.9h52.9l-5.5,12.9h-94.1Z"/>
  </g>
  <polyline class="st0" points="642.7 141 368 141 282.6 234.2 187.6 236.2 340.6 68.8 610.3 68.8"/>
</svg>