<?xml version="1.0" encoding="UTF-8"?>
<svg id="Layer_1" xmlns="http://www.w3.org/2000/svg" version="1.1" viewBox="0 0 1920 1920">
  <!-- Generator: Adobe Illustrator 30.2.1, SVG Export Plug-In . SVG Version: 2.1.1 Build 1)  -->
  <polygon points="1454.6 882 625.1 882 469.2 1035.9 1298.7 1035.9 1454.6 882"/>
  <polygon points="331.3 960.5 959.1 332.7 1188.3 562 1406.8 562 1179.6 334.8 958.6 113.7 114.4 959 428.2 1275.9 1055.4 1275.9 1211.3 1122.1 492.9 1122.1 331.3 960.5"/>
  <polygon points="1493 648.1 862.1 648.1 706.2 802 1428.4 802 1586.9 960.5 959.1 1588.3 849.7 1478.9 732.9 1362.1 514.4 1362.1 739.7 1587.4 958.6 1806.3 1805.6 960.7 1493 648.1"/>
</svg>