<?xml version="1.0" encoding="UTF-8"?>
<svg id="Layer_2" data-name="Layer 2" xmlns="http://www.w3.org/2000/svg" viewBox="0 0 74.4 53.16">
  <defs>
    <style>
      .cls-1 {
        fill: #c20000;
      }
    </style>
  </defs>
  <g id="Layer_1-2" data-name="Layer 1">
    <g>
      <path class="cls-1" d="M32.92,16.28c-2.35,0-4.44,1.5-5.17,3.74l-4.26,13c-.49,1.54.36,3.19,1.9,3.69.29.09.58.14.88.14h15.65c1.76,0,4.02-1.41,4.57-3.1l1.06-3.16h-14.15l2.64-8.26h25.54l-4.3,13.5c-1.32,4.08-4.99,9.16-10.69,9.16H0c.96,4.32,4.01,8.17,9.69,8.17h41.11c8.21,0,13.51-7.34,15.42-13.22l7.6-23.66h-40.91Z"/>
      <path class="cls-1" d="M17.64,15.6c1.32-4.08,7.8-7.44,12.6-7.44h44.15c-.96-4.32-4.01-8.17-9.69-8.17H27.18c-6.93,0-16.28,4.84-18.19,10.73L.59,36.86h10.21l6.83-21.25Z"/>
    </g>
  </g>
</svg>
