<?xml version="1.0" encoding="UTF-8"?>
<svg id="Layer_2" data-name="Layer 2" xmlns="http://www.w3.org/2000/svg" viewBox="0 0 75.6 60.7">
  <defs>
    <style>
      .cls-1 {
        fill: #c60917;
      }
    </style>
  </defs>
  <g id="Layer_1-2" data-name="Layer 1">
    <g>
      <path class="cls-1" d="M12.12,50.27s-.47-1.51-1.29-2.33c-.82-.82-7.14-7.14-8.07-8.07s-2.76-2.75-2.76-5.4,2.23-4.54,4.93-5.62c2.7-1.08,46.59-18.89,49.84-20.25,3.25-1.36,7.93-3.46,10.05-4.46S72.94.27,73.14.17s.31-.17.4-.17.18.08.18.19-.07.26-.09.33-1.84,5.47-3.28,7.31-2.14,2.62-9.03,5.04c-6.89,2.42-52.87,18.56-54.03,19.02-1.16.45-3.78,1.26-3.78,3.2,0,1.56,1.56,2.77,2.02,3.18s12.81,11.99,12.81,11.99h-6.23Z"/>
      <path class="cls-1" d="M6.7,37.74s-1.12-1.04-1.27-1.19-.48-.72-.48-1.12.08-1.37,1.78-1.9,41.44-13.61,43.61-14.29c2.17-.68,14.98-4.93,17.26-5.95.48-.21.57-.26.64-.26s.17.05.17.16-.05.2-.09.27-2.24,4.57-3.52,5.99c-1.29,1.42-2.44,2.42-4.79,3.01-2.35.59-38.91,10.42-39.15,10.49s-.51.28-.51.58c0,.48.4.52.4.52l-14.05,3.7Z"/>
      <path class="cls-1" d="M7.51,38.46l3.23,3.01,16.78-3.16s-.44-.27-.44-.59.26-.52.56-.59,24.63-4.78,26.15-5.05c1.51-.26,3.51-.71,5.13-2.67s3.2-4.6,3.26-4.68.07-.13.07-.17-.03-.17-.15-.17-.19.03-.31.08S7.51,38.46,7.51,38.46Z"/>
      <path class="cls-1" d="M55.09,34.03c-.07.02-43.57,8.17-43.57,8.17l3.77,3.49,20.12-2.53s-.38-.14-.38-.53.37-.54.59-.57,10.35-1.53,11.55-1.7c1.19-.18,3.15-.59,4.8-2.33s3.28-3.67,3.34-3.75.07-.12.07-.16-.05-.12-.14-.12c-.03,0-.08.02-.15.04Z"/>
      <polygon class="cls-1" points="16.18 46.5 20.22 50.28 46.85 50.28 36.89 44.08 16.18 46.5"/>
      <path class="cls-1" d="M14.8,53.16c.11-.01,1.07-.15,1.07-.15v-1.12h-6.81v1.12s.96.14,1.07.15.62.13.62.69v1.43h-5.25v-1.43c0-.57.5-.68.62-.69s1.07-.15,1.07-.15v-1.12H.39v1.12s.96.14,1.07.15.62.13.62.69v4.59c0,.57-.5.68-.62.69s-1.07.12-1.07.12v1.12h6.81v-1.12s-.96-.11-1.07-.12-.62-.13-.62-.69v-1.43h5.25v1.43c0,.57-.5.68-.62.69s-1.07.12-1.07.12v1.12h6.81v-1.12s-.96-.11-1.07-.12-.62-.13-.62-.69v-4.59c0-.57.5-.68.62-.69Z"/>
      <path class="cls-1" d="M23.18,51.61c-4.39,0-6.95,1.59-6.95,4.54s2.56,4.54,6.95,4.54,6.95-1.59,6.95-4.54-2.56-4.54-6.95-4.54ZM23.18,59.13c-.86,0-3.01.03-3.01-2.98s2.16-2.98,3.01-2.98,3.01-.03,3.01,2.98-2.16,2.98-3.01,2.98Z"/>
      <path class="cls-1" d="M40.07,53.02v-1.15h5.47v1.14s-.95.09-1.14.12-.59.21-.59.73v6.53h-4.22c-.2,0-.49-.06-.67-.26s-4.63-6.03-4.63-6.03v4.43c0,.33.33.55.57.59s1.15.15,1.15.15v1.14-1.14,1.14h-5.47s0-1.13,0-1.13c0,0,.95-.09,1.14-.12s.59-.21.59-.73v-4.65c0-.33-.33-.55-.57-.59s-1.15-.13-1.15-.13v-1.16h5.95c.2,0,.49.06.67.26s4.63,6.03,4.63,6.03v-4.43c0-.33-.33-.55-.57-.59s-1.15-.13-1.15-.13v-1.15"/>
      <path class="cls-1" d="M54.92,51.87h-8.81v1.16s.91.1,1.15.13.57.26.57.59v4.65c0,.52-.41.7-.59.73s-1.14.12-1.14.12v1.14h8.82c2.85,0,5.26-1.32,5.26-4.29s-2.71-4.22-5.26-4.22ZM54.06,58.77h-2.93v-5.26h2.94c1.08,0,2.17.37,2.17,2.59s-.86,2.67-2.18,2.67Z"/>
      <path class="cls-1" d="M74.46,59.12c-.44-.05-.67-.47-.72-.55s-4.02-6.13-4.18-6.36-.47-.32-.63-.32h-6.58v1.15s1.4.14,1.57.16.35.34.35.45-.06.21-.1.28-2.83,4.63-2.98,4.86-.39.33-.57.35-1.11.1-1.11.1v1.16h5.42v-1.12l-1.1-.14c-.25-.04-.32-.32-.32-.39s.04-.18.11-.28c.02-.02.17-.28.41-.66h5.23c.25.38.42.64.44.66.07.11.11.21.11.28s-.07.35-.32.39l-1.25.1v1.16h7.35v-1.12s-.71-.09-1.15-.14ZM64.96,56.3c.78-1.26,1.61-2.61,1.61-2.61,0,0,.89,1.35,1.72,2.61h-3.33Z"/>
    </g>
  </g>
</svg>