<?xml version="1.0" encoding="UTF-8"?>
<svg id="Layer_2" data-name="Layer 2" xmlns="http://www.w3.org/2000/svg" viewBox="0 0 58.94 70.35">
  <defs>
    <style>
      .cls-1 {
        fill: #273a60;
      }
    </style>
  </defs>
  <g id="Layer_1-2" data-name="Layer 1">
    <g id="g30">
      <path id="path26" class="cls-1" d="M43.33,23.23h-8.13v9.87c0,1.95.08,1.95-5.69,1.95s-5.87,0-5.87-1.95v-9.87h-8.01v32.91h8.01v-11.88c0-1.89-.02-1.89,5.87-1.89s5.69,0,5.69,1.89v11.88h8.13V23.23M29.51,61.9c-6.89,0-9.19,0-12.6-.94-1.18-.41-3.3-1-4.83-3.42-2.82-4.83-2.82-13.91-2.82-18.28s0-12.09,2.82-16.86c1.53-2.48,3.65-3.07,4.83-3.48,3.41-.88,5.72-.88,12.6-.88s9.01,0,12.49.88c1.17.41,3.24,1,4.65,3.48,3.07,4.77,3.07,13.02,3.07,17.39s0,12.92-3.07,17.75c-1.41,2.42-3.47,3.01-4.65,3.42-3.48.94-5.77.94-12.49.94M29.39,0h0c-3,0-4.94.52-5.77.71.41,3.83.29,6.9,0,7.78-.74,2.17-4.03,3.47-6.63,3.47-.94,0-1.78-.17-2.39-.53-2.54-1.53-1.95-6.19-1.95-9.26,0,0-3.71.92-6.01,1.77-1.86.7-4.65,2.07-4.65,2.07-.59,3.89,0,9.61,3.83,11.56-2.89,2.89-3.83,6.31-5.07,12.62-.63,3.54-.77,6.41-.77,8.87v.23c0,1.38.05,2.64.07,3.81.3,4.47.3,6.9,1.36,10.97,1.53,4.65,2.43,6.84,5.53,10.08,5.61,5.85,14.41,6.19,20.43,6.19.74,0,1.45,0,2.09,0,.9,0,1.9.02,2.99.02,6.04,0,14.51-.49,19.66-6.21,2.96-3.28,3.71-5.43,5.18-10.08,1.3-4.07,1.12-6.49,1.53-10.97.12-3.31.3-7.26-.83-12.91-1.24-6.3-2.18-9.73-5.07-12.62,3.83-1.95,4.36-7.66,3.83-11.56,0,0-2.93-1.45-4.89-2.18-2.13-.79-5.59-1.65-5.59-1.65,0,3.07.35,7.73-1.95,9.26-.62.36-1.48.53-2.43.53-2.64,0-5.95-1.31-6.64-3.47-.3-.88-.59-3.95,0-7.78-.83-.19-3.12-.71-5.9-.71"/>
    </g>
  </g>
</svg>