<?xml version="1.0" encoding="UTF-8"?>
<svg id="Layer_2" data-name="Layer 2" xmlns="http://www.w3.org/2000/svg" viewBox="0 0 70.5 37.15">
  <defs>
    <style>
      .cls-1 {
        fill: #00f90c;
        fill-rule: evenodd;
      }
    </style>
  </defs>
  <g id="Layer_1-2" data-name="Layer 1">
    <g>
      <path class="cls-1" d="M21.11,11.78h6.1c8.92.23,24.16,4.87,15.58,11.21h27.71c0-3.51-4.29-9.85-15.24-11.55,10.95-1.7,15.24-7.93,15.24-11.44h-27.71c7.22,6.79-9.93,10.87-15.58,10.98h-6.1V0H0v22.98h21.11v-11.21h0Z"/>
      <path class="cls-1" d="M44.82,35.41c.5,0,1.22-.16,1.21-.74-.04-1.64-5.09-.21-5.09-3.41,0-1.94,2.01-2.55,3.72-2.55s3.89.24,4.08,2.43h-2.88c-.03-.27-.14-.46-.31-.6-.17-.14-.49-.2-.74-.2-.56,0-.93.17-.93.58,0,1.15,5.12-.08,5.11,3.43,0,1.62-1.27,2.81-4.28,2.79-1.76,0-3.77-.59-3.76-2.87h2.69c.08.47.34,1.07,1.19,1.14h0Z"/>
      <polygon class="cls-1" points="67.46 37.03 67.46 29.01 70.5 29.01 70.5 37.03 67.46 37.03 67.46 37.03"/>
      <polygon class="cls-1" points="67.46 25.75 70.5 25.75 70.5 27.82 67.46 27.82 67.46 25.75 67.46 25.75"/>
      <polygon class="cls-1" points="25.97 33.05 27.14 36.97 30.13 36.97 32.87 28.84 29.69 28.84 28.43 33.02 28.49 33.02 27.22 28.84 24.57 28.84 23.3 33.02 23.27 33.02 22.01 28.84 18.83 28.84 21.57 36.97 24.76 36.97 25.93 33.05 25.97 33.05 25.97 33.05"/>
      <polygon class="cls-1" points="0 25.75 0 36.95 3.24 36.95 3.24 33.64 4.32 32.47 7.28 36.95 11.26 36.95 6.71 30.14 10.8 25.75 6.54 25.75 3.24 29.22 3.24 25.75 0 25.75 0 25.75"/>
      <polygon class="cls-1" points="61.45 34.75 61.45 37.04 58.32 37.04 58.32 25.7 61.45 25.7 61.45 31.28 63.39 29.02 66.72 29.02 64.05 32.01 67.17 37.04 63.73 37.04 62.03 34.28 61.45 34.75 61.45 34.75"/>
      <path class="cls-1" d="M19.17,35.81v-3.86c0-1.84-.65-3.2-3.9-3.19-2.92.02-3.98,1.03-4.18,2.74h2.8c.17-.86.97-1,1.43-1,.35,0,.98.08.98.68,0,1.54-5.44.48-5.48,3.53,0,1.72,1.12,2.43,2.68,2.43,1.22,0,2.01-.16,2.85-.73l.37.61h2.59v-.1c-.16-.28-.13-.77-.14-1.11h0ZM14.86,35.35c-.64.07-1.12-.17-1.12-.57h0c0-1.07,1.33-.95,2.39-1.47.08,1.13-.17,1.93-1.27,2.04h0Z"/>
      <path class="cls-1" d="M57.77,35.81v-3.86c0-1.84-.65-3.2-3.9-3.19-2.92.02-3.98,1.03-4.18,2.74h2.8c.17-.86.97-1,1.43-1,.35,0,.98.08.98.68,0,1.54-5.44.48-5.48,3.53,0,1.72,1.12,2.43,2.68,2.43,1.22,0,2.01-.16,2.85-.73l.37.61h2.59v-.1c-.16-.28-.13-.77-.14-1.11h0ZM53.46,35.35c-.64.07-1.12-.17-1.12-.57h0c0-1.07,1.33-.95,2.39-1.47.08,1.13-.17,1.93-1.27,2.04h0Z"/>
      <path class="cls-1" d="M40.54,35.81v-3.86c0-1.84-.65-3.2-3.9-3.19-2.92.02-3.98,1.03-4.18,2.74h2.8c.17-.86.97-1,1.43-1,.35,0,.98.08.98.68,0,1.54-5.44.48-5.48,3.53,0,1.72,1.12,2.43,2.68,2.43,1.22,0,2.01-.16,2.85-.73l.37.61h2.59v-.1c-.16-.28-.13-.77-.14-1.11h0ZM36.23,35.35c-.64.07-1.12-.17-1.12-.57h0c0-1.07,1.33-.95,2.39-1.47.08,1.13-.17,1.93-1.27,2.04h0Z"/>
    </g>
  </g>
</svg>