<?xml version="1.0" encoding="UTF-8"?>
<svg id="Layer_2" data-name="Layer 2" xmlns="http://www.w3.org/2000/svg" viewBox="0 0 87.45 27.26">
  <defs>
    <style>
      .cls-1 {
        fill: #dd5e00;
      }
    </style>
  </defs>
  <g id="Layer_1-2" data-name="Layer 1">
    <path class="cls-1" d="M15.26,19.79c-.65,1.56-1.28,3.05-1.9,4.55-.37.89-.75,1.78-1.11,2.67-.08.19-.18.26-.39.26-3.86,0-7.71,0-11.57,0-.08,0-.17-.02-.29-.03.22-.55.43-1.08.65-1.6,2.7-6.37,5.4-12.74,8.09-19.11.08-.19.18-.29.4-.29,3.88,0,7.76,0,11.64,0,.05,0,.1.01.22.02-1.12,2.71-2.24,5.39-3.35,8.07.02.02.04.03.07.05.66-.54,1.32-1.07,1.98-1.61,2.58-2.11,5.17-4.21,7.76-6.31.15-.12.37-.22.56-.22,2.52-.01,5.03,0,7.55,0,.09,0,.19.02.37.03-3.34,2.77-6.62,5.48-9.92,8.21,1.92,2.54,3.82,5.05,5.78,7.64,2.46-6.21,4.88-12.35,7.33-18.55-5.79.05-11.52.11-17.29.16.04-.13.06-.21.09-.29.39-1.04.79-2.08,1.17-3.13.09-.24.21-.34.46-.3.06,0,.12,0,.19,0h46.09c-.31,1.31-.62,2.58-.93,3.87h-.5c-5.5,0-11.01,0-16.51,0-.37,0-.5.12-.62.45-1.49,4.41-3,8.81-4.5,13.21-.04.11-.07.23-.05.39.24-.23.48-.47.71-.7,3.54-3.59,7.08-7.18,10.63-10.76.12-.12.34-.22.51-.22,3.31-.01,6.62,0,9.93,0,.11,0,.22.01.38.03-.56,2.66-1.12,5.3-1.7,8.04.25-.22.43-.36.6-.51,2.72-2.44,5.44-4.88,8.18-7.31.15-.13.39-.24.58-.24,3.51-.01,7.02-.01,10.53,0,.11,0,.22.01.38.02-.21.94-.41,1.85-.61,2.76-1.11,4.96-2.22,9.92-3.34,14.88-.22.98-.45,1.95-.65,2.93-.04.2-.13.26-.32.26-3.53,0-7.07,0-10.6,0-.05,0-.09-.02-.2-.03.36-2.4.71-4.79,1.08-7.27-.25.22-.44.37-.62.53-2.53,2.19-5.05,4.39-7.58,6.58-.13.12-.35.19-.53.19-3.19.01-6.37,0-9.56,0-.12,0-.24-.01-.41-.02.41-2.46.81-4.88,1.21-7.3-.02-.02-.04-.04-.06-.05-.1.09-.21.17-.31.27-2.49,2.34-4.98,4.69-7.48,7.03-.15.14-.41.24-.61.24-8.53.01-17.06,0-25.59.02-.28,0-.45-.08-.62-.31-1.7-2.29-3.41-4.56-5.12-6.84-.07-.1-.15-.19-.28-.33Z"/>
  </g>
</svg>