<?xml version="1.0" encoding="UTF-8"?>
<svg id="Layer_2" data-name="Layer 2" xmlns="http://www.w3.org/2000/svg" viewBox="0 0 72.69 64.9">
  <defs>
    <style>
      .cls-1 {
        fill: #fff;
      }
      .cls-2 {
        fill: #f0ff00;
      }
    </style>
  </defs>
  <g id="Layer_1-2" data-name="Layer 1">
    <g>
      <path class="cls-1" d="M36.35,64.9c.56,0,1.1-.07,1.59-.22.51-.15,1-.39,1.45-.7.43-.3.83-.67,1.21-1.13.35-.42.68-.9,1.01-1.48,0,0,29.81-51.97,30.06-52.43.25-.46.46-.93.62-1.41.16-.48.28-.96.34-1.44.07-.49.08-.97.04-1.43-.02-.25-.13-1-.44-1.68-.31-.67-.67-1.09-1.12-1.51-.45-.42-1.26-.88-1.94-1.11-.38-.12-.82-.23-1.27-.29-.43-.06-.9-.08-1.43-.08H6.23c-.54,0-1,.03-1.43.08-.45.06-.89.16-1.27.29-.68.22-1.49.68-1.94,1.11-.45.42-.8.84-1.12,1.51C.15,3.66.05,4.42.02,4.66c-.04.46-.03.94.04,1.43.07.47.18.96.34,1.44.16.48.37.95.62,1.41.25.46,30.06,52.43,30.06,52.43.33.57.66,1.06,1.01,1.48.38.46.78.83,1.21,1.13.45.31.93.55,1.45.7.49.15,1.03.22,1.59.22"/>
      <path class="cls-2" d="M6.23,1.41c-.94,0-1.64.09-2.25.3-1.16.4-1.94,1.1-2.32,2.08-.48,1.23-.25,2.9.61,4.47l30.05,52.4c1.13,1.98,2.34,2.83,4.03,2.83s2.9-.85,4.03-2.83l30.05-52.4c.85-1.57,1.08-3.23.6-4.47-.38-.99-1.16-1.69-2.32-2.08-.61-.2-1.31-.3-2.25-.3"/>
      <polyline points="61.86 18.23 59.81 21.8 48.32 21.8 57.16 26.43 55.81 28.77 48.32 24.65 48.32 41.84 44.74 48.08 44.74 18.23"/>
      <polyline points="10.83 18.23 12.88 21.8 24.37 21.8 15.53 26.43 16.88 28.77 24.37 24.65 24.37 41.84 27.95 48.08 27.95 18.23"/>
      <path d="M44.29,12.04v-6.53h-1.16c-.43,0-.58.21-.86.6l-1.79,2.52-1.98-3.13h-1.24c-.41,0-.47.38-.47.6v5.93h1.43v-4.3l1.93,2.89h.61l2.02-2.88v4.28"/>
      <path d="M47.44,10.03c.23,0,1.04-.03,1.8-.36.97-.43,1.47-1.18,1.47-2.23,0-.58-.23-1.92-2.38-1.92h-2.24c-.41,0-.48.38-.48.6v5.93h1.73v-2.01h.1M47.34,8.94v-2.34h.59c1.09,0,1.26.64,1.26,1.03,0,1.26-1.46,1.32-1.75,1.32-.03,0-.05,0-.05,0h-.04Z"/>
      <path d="M35.48,5.51h-1.26c-.41,0-.48.38-.48.6v3.52c0,1.18-.63,1.42-1.17,1.42s-1.17-.25-1.17-1.42v-4.11h-1.26c-.41,0-.48.38-.48.6v3.65c0,1.15.51,2.52,2.91,2.52s2.9-1.37,2.9-2.52"/>
      <path d="M26.62,12.04h1.73v-6.53h-1.26c-.41,0-.47.37-.47.6"/>
      <path d="M57.86,12.04v-6.52h-1.26c-.41,0-.48.38-.48.6v1.09h-.04c-.8.16-1.61.47-2.48.95l-.06.04v-2.67h-1.26c-.42,0-.47.38-.47.6v3.23h-.02c-.27.21-.52.41-.74.58l-.06.04c-4.49,3.53-8.97,5.12-14.52,5.16h-.18c-2.56,0-5.01-.42-7.09-1.23-2.43-.94-4.26-2.33-5.45-4.15l-.03-.05.05-.02c1-.43,1.52-1.18,1.52-2.25,0-.58-.23-1.92-2.38-1.92h-2.24c-.41,0-.48.38-.48.6v5.93h1.76v-2.01h.05s.04,0,.1,0h.02l.02.02c2.28,2.74,6.63,6,14.34,6,5.77,0,10.48-1.61,15.26-5.23l.07-.05v1.28h1.73v-2.54h.02c.93-.61,1.72-.95,2.5-1.07h.05s0,3.61,0,3.61M22.06,8.94h-.09v-2.35h.57c1.09,0,1.26.64,1.26,1.03,0,1.26-1.44,1.32-1.73,1.32"/>
      <path d="M19.42,5.51h-5.42c-.39,0-.47.32-.47.6v.95h2.07v4.98h1.74v-4.98h1.6c.41,0,.47-.38.47-.6"/>
    </g>
  </g>
</svg>
