<?xml version="1.0" encoding="UTF-8"?>
<svg id="Layer_2" data-name="Layer 2" xmlns="http://www.w3.org/2000/svg" viewBox="0 0 71.48 71.48">
  <defs>
    <style>
      .cls-1 {
        fill: #2900c7;
        fill-rule: evenodd;
      }
    </style>
  </defs>
  <g id="Layer_1-2" data-name="Layer 1">
    <g>
      <path class="cls-1" d="M35.74,0C16,0,0,16,0,35.74s16,35.74,35.74,35.74,35.74-16,35.74-35.74S55.48,0,35.74,0h0ZM35.74,70.02C16.81,70.02,1.46,54.67,1.46,35.74S16.81,1.46,35.74,1.46s34.28,15.35,34.28,34.28-15.35,34.28-34.28,34.28h0Z"/>
      <path class="cls-1" d="M35.73,5.67c-16.61,0-30.07,13.47-30.07,30.07s13.46,30.07,30.07,30.07,30.07-13.46,30.07-30.07S52.34,5.67,35.73,5.67h0ZM57.53,49.33l-6.07-1.19c-.03-.97-.54-1.74-1.7-2.4-1.33-.77-1.7-.75-3.29-.47-1.58.27-3.49-.53-4.56-1.15-.24-.14-.98-.57-2.08-1.2v14.25h-2.11v-15.46c-.61-.35-1.26-.73-1.95-1.13-.71.41-1.38.8-2,1.15v15.44h-2.11v-14.22c-1.05.61-1.76,1.02-1.99,1.15-1.07.62-2.98,1.42-4.56,1.15-1.58-.27-1.95-.3-3.29.47-1.16.67-1.66,1.43-1.7,2.4l-6.07,1.19c-.49.12-.94.07-1.11-.25-.17-.32-.04-.76.31-1.13l4.07-4.66c.86.45,1.77.4,2.93-.27,1.33-.77,1.5-1.1,2.05-2.61.55-1.51,2.21-2.76,3.27-3.37.23-.13.95-.55,2.02-1.16-6.4-3.7-12.52-7.23-12.52-7.23l1.05-1.82,13.57,7.84c.61-.35,1.26-.73,1.95-1.13v-2.31l-13.55-7.82,1.05-1.82s6.1,3.52,12.5,7.22v-2.58c0-1.23.26-3.29,1.28-4.52,1.03-1.23,1.23-1.54,1.23-3.08,0-1.34-.41-2.16-1.23-2.67l2-5.86c.15-.48.41-.85.77-.84.36.01.68.35.83.84l2,5.86c-.82.51-1.23,1.34-1.23,2.67,0,1.54.21,1.85,1.23,3.08,1.03,1.23,1.28,3.29,1.28,4.52v2.61c6.42-3.71,12.58-7.26,12.58-7.26l1.05,1.82-13.63,7.87v2.26c.71.41,1.38.8,2,1.16l13.61-7.86,1.05,1.82s-6.14,3.55-12.56,7.25c1.08.63,1.82,1.05,2.05,1.19,1.07.62,2.72,1.87,3.27,3.37.55,1.51.72,1.84,2.05,2.61,1.16.67,2.07.72,2.93.27l4.07,4.66c.35.37.53.78.34,1.08-.19.3-.64.41-1.14.3h0Z"/>
      <polygon class="cls-1" points="35.78 38.14 33.78 36.98 33.78 34.73 35.78 33.57 37.73 34.7 37.73 37.01 35.78 38.14 35.78 38.14"/>
      <path class="cls-1" d="M33.78,26.39c.15-1.64.92-1.95,1.95-1.95s1.85.31,2,1.95v3.62c-.66.38-1.31.76-1.95,1.13-.66-.38-1.33-.77-2-1.15v-3.59h0Z"/>
      <path class="cls-1" d="M28.8,42.16c-1.5.69-2.15.18-2.67-.71-.51-.89-.66-1.76.69-2.71l2.89-1.67c.66.38,1.31.76,1.95,1.13v2.31l-2.87,1.66h0Z"/>
      <path class="cls-1" d="M45.48,41.43c-.51.89-1.19,1.45-2.69.76l-2.95-1.7v-2.26c.66-.38,1.33-.77,2-1.15l2.93,1.69c1.35.96,1.23,1.78.71,2.67h0Z"/>
    </g>
  </g>
</svg>