<?xml version="1.0" encoding="UTF-8"?>
<svg id="Layer_2" data-name="Layer 2" xmlns="http://www.w3.org/2000/svg" viewBox="0 0 452.29 348.55">
  <defs>
    <style>
      .cls-1 {
        fill: #fff;
      }
    </style>
  </defs>
  <g id="Layer_1-2" data-name="Layer 1">
    <path class="cls-1" d="M376.37,86.12l-23.13,44.21,49,86.95c-13.88,26.44-28.44,52.73-43.59,78.45-.95,1.62-4.04,9.56-6.35,7.71l-99.76-170.78c-2.31-9.14,21.46-35.82,23.21-47.21L226.14,0l-49.61,85.44c1.75,11.39,25.52,38.07,23.21,47.21l-99.76,170.78c-2.3,1.86-5.39-6.09-6.35-7.71-15.16-25.71-29.72-52.01-43.59-78.45l49-86.95-23.13-44.21L0,217.29l74.35,130.75,50.32.5,101.48-174.31,101.48,174.31,50.32-.5,74.35-130.75-75.92-131.17Z"/>
  </g>
</svg>