<?xml version="1.0" encoding="UTF-8"?>
<svg id="Layer_2" data-name="Layer 2" xmlns="http://www.w3.org/2000/svg" xmlns:xlink="http://www.w3.org/1999/xlink" viewBox="0 0 906.11 104.35">
  <defs>
    <style>
      .cls-1 {
        fill: url(#linear-gradient-3);
      }

      .cls-2 {
        fill: url(#linear-gradient-2);
      }

      .cls-3 {
        fill: url(#linear-gradient);
      }

      .cls-4 {
        fill: #fff;
      }
    </style>
    <linearGradient id="linear-gradient" x1="334.09" y1="7.62" x2="423.14" y2="7.62" gradientUnits="userSpaceOnUse">
      <stop offset="0" stop-color="#ac1f25"/>
      <stop offset="1" stop-color="#eb2127"/>
    </linearGradient>
    <linearGradient id="linear-gradient-2" x1="325.81" y1="33.87" x2="414.09" y2="33.87" gradientUnits="userSpaceOnUse">
      <stop offset="0" stop-color="#ac1f25"/>
      <stop offset="1" stop-color="#eb2127"/>
    </linearGradient>
    <linearGradient id="linear-gradient-3" x1="317.34" y1="60.13" x2="405.52" y2="60.13" xlink:href="#linear-gradient-2"/>
  </defs>
  <g id="Layer_1-2" data-name="Layer 1">
    <g>
      <polygon class="cls-3" points="423.14 0 339.61 0 334.09 15.23 417.62 15.23 423.14 0"/>
      <polygon class="cls-2" points="325.81 41.49 408.62 41.49 414.09 26.26 331.28 26.26 325.81 41.49"/>
      <polygon class="cls-1" points="317.34 67.75 400.06 67.75 405.52 52.52 322.8 52.52 317.34 67.75"/>
      <path class="cls-4" d="M138.43,32.52l.62-2.13,2.56-8.42c.88-2.84,1.32-5.45,1.32-7.84,0-4.45-1.38-7.92-4.15-10.4-2.77-2.48-6.68-3.73-11.74-3.73H4.59L0,15.68h24.81l-15.36,52.07h20.75l15.45-52.07h69.12c2.18,0,3.77.35,4.77,1.06,1,.71,1.5,1.84,1.5,3.39,0,.32-.06.94-.18,1.84l-1.41,4.74c-.71,2.32-1.69,3.92-2.96,4.79-1.27.87-3.19,1.31-5.78,1.31h-22.25l5.12-17.13-25.43,15.78-.44,1.35-10.33,34.94h20.75l5.74-19.26h18.19l9.62,19.26h20.75l-9.8-19.55c7.89-1.36,13.15-6.58,15.8-15.68Z"/>
      <polygon class="cls-4" points="156.87 0 136.83 67.75 157.58 67.75 177.71 0 156.87 0"/>
      <path class="cls-4" d="M247.8,3.73c-2.77-2.48-6.68-3.73-11.74-3.73h-49.53l-4.59,15.68h41.85c2.18,0,3.77.35,4.77,1.06,1,.71,1.5,1.84,1.5,3.39,0,.32-.06.94-.18,1.84l-1.41,4.74c-.71,2.32-1.69,3.92-2.96,4.79-1.26.87-3.19,1.31-5.78,1.31h-22.16l5.12-17.13-25.43,15.78-.44,1.35-10.33,34.94h20.75l5.74-19.26h34.52c5.18,0,9.42-1.32,12.71-3.97,3.3-2.65,5.71-6.65,7.24-12l.62-2.13,2.56-8.42c.88-2.84,1.32-5.45,1.32-7.84,0-4.45-1.38-7.92-4.15-10.4Z"/>
      <path class="cls-4" d="M276.09,50.13c-1.38-1.29-2.07-3.03-2.07-5.23,0-1.29.21-2.58.62-3.87L286.82,0h-20.75l-13.6,45.78c-.82,2.65-1.24,5.26-1.24,7.84,0,4.45,1.37,7.92,4.11,10.4,2.74,2.48,6.64,3.73,11.7,3.73h40.7l4.59-15.68h-30.37c-2.53,0-4.49-.65-5.87-1.94Z"/>
      <path class="cls-4" d="M567.64,3.73c-2.77-2.48-6.68-3.73-11.74-3.73h-109.38c-5.18,0-9.4,1.32-12.67,3.97-3.27,2.64-5.69,6.65-7.28,12l-8.83,29.81c-.82,2.65-1.24,5.26-1.24,7.84,0,4.45,1.37,7.92,4.11,10.4,2.74,2.48,6.64,3.73,11.7,3.73h45.11l4.59-15.68h-34.78c-2.53,0-4.49-.63-5.87-1.89-1.38-1.26-2.07-3.02-2.07-5.27,0-1.29.21-2.58.62-3.87l5.12-17.42c1.59-5.29,4.92-7.94,9.98-7.94h88.63c2.18,0,3.77.35,4.77,1.06,1,.71,1.5,1.84,1.5,3.39,0,.32-.06.94-.18,1.84l-1.41,4.74c-.71,2.32-1.69,3.92-2.96,4.79-1.27.87-3.19,1.31-5.78,1.31h-22.25l5.12-17.13-25.43,15.78-.44,1.35-10.33,34.94h20.75l5.74-19.26h18.19l9.62,19.26h20.75l-9.8-19.55c7.89-1.36,13.15-6.58,15.8-15.68l.62-2.13,2.56-8.42c.88-2.84,1.32-5.45,1.32-7.84,0-4.45-1.38-7.92-4.15-10.4Z"/>
      <path class="cls-4" d="M651.07,14.13c0-4.45-1.37-7.92-4.1-10.4-2.74-2.48-6.64-3.73-11.7-3.73h-34.25c-5.18,0-9.4,1.32-12.67,3.97-3.27,2.64-5.69,6.65-7.28,12l-8.83,29.81c-.82,2.65-1.24,5.26-1.24,7.84,0,4.45,1.37,7.92,4.11,10.4,2.74,2.48,6.64,3.73,11.7,3.73h34.25c5.18,0,9.4-1.32,12.67-3.97,3.27-2.64,5.69-6.65,7.28-12l8.83-29.81c.82-2.65,1.24-5.26,1.24-7.84ZM627.67,26.71l-5.12,17.42c-1.59,5.29-4.92,7.94-9.98,7.94h-10.86c-2.53,0-4.49-.63-5.87-1.89-1.38-1.26-2.07-3.02-2.07-5.27,0-1.29.21-2.58.62-3.87l5.12-17.42c1.59-5.29,4.92-7.94,9.98-7.94h10.86c2.53,0,4.49.63,5.87,1.89,1.38,1.26,2.07,3.02,2.07,5.27,0,1.29-.21,2.58-.62,3.87Z"/>
      <path class="cls-4" d="M790.73,0l-38.14,45.78c-1.88,2.26-3.81,3.87-5.78,4.84s-4.31,1.45-7.02,1.45l15.36-52.07h-25.78c-2.77,0-5.16.5-7.19,1.5-2.03,1-3.96,2.6-5.78,4.79l-32.93,39.49c-1.88,2.26-3.81,3.87-5.78,4.84-1.97.97-4.31,1.45-7.02,1.45l15.36-52.07h-20.75l-20.13,67.75h29.49c5.18,0,10.09-1.27,14.74-3.82,4.65-2.55,9.27-6.6,13.86-12.15l24.54-29.52-13.51,45.49h29.49c5.18,0,10.09-1.27,14.74-3.82,4.65-2.55,9.27-6.6,13.86-12.15L815.45,0h-24.72Z"/>
      <path class="cls-4" d="M885.36,0l-13.51,45.49-7.15-29.52c-1.35-5.48-3.6-9.52-6.75-12.1-3.15-2.58-7.34-3.87-12.58-3.87h-24.1l-20.13,67.75h20.83l15.36-52.07h.09c2.24,0,3.87.47,4.9,1.4,1.03.94,1.84,2.57,2.43,4.89l11.39,45.78h29.93L906.11,0h-20.75Z"/>
      <g>
        <path class="cls-4" d="M714.99,87.25c-.1.27-.16.57-.16.89,0,.89.57,1.33,1.71,1.33h7.3c3.2,0,4.8,1.45,4.8,4.34,0,.94-.2,2.07-.59,3.42h.03l-.44,1.47c-.58,1.91-1.45,3.33-2.61,4.26-1.15.92-2.64,1.39-4.45,1.39h-17.91l1.62-5.54h14.16c.64,0,1.14-.11,1.5-.32.35-.22.62-.63.81-1.25h-.03c.1-.3.16-.59.16-.89,0-.89-.57-1.33-1.71-1.33h-6.36c-1.79,0-3.17-.44-4.15-1.32-.98-.88-1.47-2.1-1.47-3.68,0-.87.16-1.79.47-2.77l.34-1.2c.58-1.92,1.45-3.33,2.6-4.26,1.15-.92,2.64-1.39,4.45-1.39h17.91l-1.62,5.54h-14.16c-.71,0-1.21.07-1.51.21-.3.14-.54.5-.7,1.09Z"/>
        <path class="cls-4" d="M745.29,96.28c0,.78.25,1.39.73,1.85.49.46,1.18.68,2.07.68h12.29l-1.62,5.54h-15.94c-1.79,0-3.17-.44-4.13-1.32-.97-.88-1.45-2.1-1.45-3.68,0-.91.15-1.84.44-2.77l4.8-16.18h23.36l-1.65,5.54h-16.03l-2.65,8.96c-.15.46-.22.91-.22,1.37ZM750.62,89.37h10.92l-1.62,5.54h-14.41l5.12-5.54Z"/>
        <path class="cls-4" d="M798.36,85.41c0,.84-.16,1.77-.47,2.77l-.91,2.97-.22.75c-.93,3.21-2.8,5.06-5.58,5.54l3.46,6.91h-7.33l-3.4-6.81h-6.43l-2.03,6.81h-7.33l3.65-12.35.16-.48,8.98-5.57-1.81,6.05h7.86c.92,0,1.6-.15,2.04-.46.45-.31.8-.87,1.05-1.69l.5-1.68c.04-.32.06-.54.06-.65,0-.55-.18-.95-.53-1.2-.35-.25-.92-.38-1.68-.38h-14.82l1.62-5.54h17.53c1.79,0,3.17.44,4.15,1.32.98.88,1.47,2.1,1.47,3.68Z"/>
        <path class="cls-4" d="M809.54,80.41h7.36l-7.11,23.94h-7.33l7.08-23.94Z"/>
        <path class="cls-4" d="M829.1,96.28c0,.78.25,1.39.73,1.85.49.46,1.18.68,2.07.68h12.29l-1.62,5.54h-15.94c-1.79,0-3.17-.44-4.13-1.32-.97-.88-1.45-2.1-1.45-3.68,0-.91.15-1.84.44-2.77l4.8-16.18h23.36l-1.65,5.54h-16.03l-2.65,8.96c-.15.46-.22.91-.22,1.37ZM834.43,89.37h10.92l-1.62,5.54h-14.41l5.12-5.54Z"/>
        <path class="cls-4" d="M864.33,87.25c-.1.27-.16.57-.16.89,0,.89.57,1.33,1.71,1.33h7.3c3.2,0,4.8,1.45,4.8,4.34,0,.94-.2,2.07-.59,3.42h.03l-.44,1.47c-.58,1.91-1.45,3.33-2.61,4.26-1.15.92-2.64,1.39-4.45,1.39h-17.91l1.62-5.54h14.16c.64,0,1.14-.11,1.5-.32.35-.22.62-.63.81-1.25h-.03c.1-.3.16-.59.16-.89,0-.89-.57-1.33-1.71-1.33h-6.36c-1.79,0-3.17-.44-4.15-1.32-.98-.88-1.47-2.1-1.47-3.68,0-.87.16-1.79.47-2.77l.34-1.2c.58-1.92,1.45-3.33,2.6-4.26,1.15-.92,2.64-1.39,4.45-1.39h17.91l-1.62,5.54h-14.16c-.71,0-1.21.07-1.51.21-.3.14-.54.5-.7,1.09Z"/>
      </g>
    </g>
  </g>
</svg>