<?xml version="1.0" encoding="UTF-8"?>
<svg id="Layer_2" data-name="Layer 2" xmlns="http://www.w3.org/2000/svg" xmlns:xlink="http://www.w3.org/1999/xlink" viewBox="0 0 1162.06 884.39">
  <defs>
    <style>
      .cls-1 {
        fill: url(#linear-gradient-8);
      }

      .cls-2 {
        fill: url(#linear-gradient-7);
      }

      .cls-3 {
        fill: url(#linear-gradient-5);
      }

      .cls-4 {
        fill: url(#linear-gradient-6);
      }

      .cls-5 {
        fill: url(#linear-gradient-9);
      }

      .cls-6 {
        fill: url(#linear-gradient-4);
      }

      .cls-7 {
        fill: url(#linear-gradient-3);
      }

      .cls-8 {
        fill: url(#linear-gradient-2);
      }

      .cls-9 {
        fill: url(#linear-gradient);
      }

      .cls-10 {
        fill: #fff;
      }

      .cls-11 {
        fill: #1a1516;
      }

      .cls-12 {
        fill: #939598;
      }
    </style>
    <linearGradient id="linear-gradient" x1="398.39" y1="108.78" x2="883.3" y2="303.85" gradientUnits="userSpaceOnUse">
      <stop offset=".04" stop-color="#ac1f25"/>
      <stop offset=".49" stop-color="#eb2127"/>
      <stop offset="1" stop-color="#ac1f25"/>
    </linearGradient>
    <linearGradient id="linear-gradient-2" x1="443.74" y1="-3.96" x2="928.65" y2="191.12" gradientUnits="userSpaceOnUse">
      <stop offset=".04" stop-color="#ac1f25"/>
      <stop offset=".49" stop-color="#eb2127"/>
      <stop offset="1" stop-color="#ac1f25"/>
    </linearGradient>
    <linearGradient id="linear-gradient-3" x1="351.35" y1="225.7" x2="836.26" y2="420.78" gradientUnits="userSpaceOnUse">
      <stop offset="0" stop-color="#ac1f25"/>
      <stop offset=".49" stop-color="#eb2127"/>
      <stop offset="1" stop-color="#ac1f25"/>
    </linearGradient>
    <linearGradient id="linear-gradient-4" x1="411.66" y1="749.9" x2="722.56" y2="749.9" gradientUnits="userSpaceOnUse">
      <stop offset="0" stop-color="#ac1f25"/>
      <stop offset="1" stop-color="#eb2127"/>
    </linearGradient>
    <linearGradient id="linear-gradient-5" x1="411.66" x2="722.56" xlink:href="#linear-gradient-4"/>
    <linearGradient id="linear-gradient-6" x1="411.66" x2="722.56" xlink:href="#linear-gradient-4"/>
    <linearGradient id="linear-gradient-7" x1="411.66" x2="722.56" xlink:href="#linear-gradient-4"/>
    <linearGradient id="linear-gradient-8" x1="411.66" x2="722.56" xlink:href="#linear-gradient-4"/>
    <linearGradient id="linear-gradient-9" x1="411.66" x2="722.56" xlink:href="#linear-gradient-4"/>
  </defs>
  <g id="Layer_1-2" data-name="Layer 1">
    <path class="cls-11" d="M542.66,884.39c-6.92,0-13.75-1.81-19.75-5.24-1.58-.9-158.04-89.91-240.33-120.2H78.01c-23.38,0-42.55-7.31-56.99-21.74-10.42-10.4-22.5-28.95-20.87-58.21.56-10.02,2.62-20.14,6.12-30.07l22.41-65.94c6.89-20.24,17.56-36.29,31.7-47.69,15.64-12.61,34.61-19.01,56.38-19.01h15.65l9.23-29.4h-55.26l38.88-124.8h185.83L379.11,31.79c3.8-18.42,20.2-31.79,39-31.79l554.94.73c12.1.01,23.39,5.43,30.98,14.86,7.58,9.42,10.46,21.61,7.88,33.43l-68.14,313.08h216.2l-56.22,154.2h58.32l-82.39,242.65h-208.67c-84.82,23.37-310.19,121.15-312.47,122.14-5.04,2.19-10.38,3.3-15.88,3.3Z"/>
    <path class="cls-12" d="M542.66,871.72c-4.72,0-9.37-1.23-13.46-3.57-1.61-.92-161.82-92.03-244.37-121.87H78.01c-19.9,0-36.06-6.07-48.03-18.03-8.59-8.58-18.55-23.97-17.18-48.54.49-8.82,2.32-17.76,5.42-26.56l22.46-66.08c6.11-17.94,15.41-32.03,27.66-41.9,13.33-10.75,29.62-16.2,48.42-16.2h24.95l17.18-54.75h-55.3l30.98-99.45h186.83L391.53,34.35c2.59-12.56,13.77-21.67,26.59-21.67l554.92.73c8.25.01,15.94,3.7,21.12,10.13,5.17,6.42,7.13,14.73,5.37,22.79l-71.49,328.45h213.81l-56.22,154.2h58.74l-73.78,217.31h-201.28c-84.58,22.84-313.51,122.18-315.82,123.19-3.43,1.49-7.08,2.25-10.82,2.25Z"/>
    <path class="cls-11" d="M1067.52,541.64l56.22-154.2h-211.43l74.83-343.82c.93-4.28-.12-8.74-2.87-12.15-2.74-3.41-6.88-5.39-11.26-5.4l-554.88-.73h-.02c-6.87,0-12.79,4.83-14.18,11.55l-72.2,350.55h-187.84l-23.08,74.1h55.34l-25.14,80.09h-34.26c-15.83,0-29.45,4.51-40.47,13.39-10.35,8.34-18.29,20.49-23.61,36.11l-22.5,66.21c-2.71,7.67-4.29,15.42-4.72,23.05-1.11,19.89,6.72,32.12,13.48,38.87,9.51,9.5,22.65,14.32,39.07,14.32h209.02c83.76,29.7,246.66,122.51,248.46,123.53,2.22,1.27,4.69,1.91,7.18,1.91,1.96,0,3.93-.4,5.77-1.2,2.38-1.04,234.73-101.91,319.21-124.24h193.86l65.17-191.96h-59.16Z"/>
    <path class="cls-10" d="M381.53,593.69c.55-9.91-1.97-17.63-7.57-23.15-5.6-5.53-13.8-8.29-24.6-8.29H115.84c-11.06,0-20.24,2.94-27.54,8.83-7.3,5.89-12.98,14.79-17.04,26.71l-22.55,66.34c-2.09,5.89-3.29,11.7-3.61,17.45-.55,9.91,1.94,17.63,7.48,23.15,5.53,5.53,13.7,8.29,24.51,8.29h96.31l11.75-34.89h-74.26c-5.4,0-9.5-1.4-12.3-4.2-2.8-2.8-4.06-6.71-3.77-11.74.16-2.87.76-5.75,1.8-8.62l13.09-38.77c4.05-11.77,11.48-17.66,22.28-17.66h189.22c4.65,0,8,.79,10.05,2.37,2.05,1.58,2.98,4.09,2.78,7.54-.04.72-.24,2.08-.6,4.09l-3.61,10.55c-1.8,5.17-4.1,8.72-6.91,10.66-2.81,1.94-6.98,2.91-12.51,2.91h-47.49l13.05-38.12-56.24,35.11-1.11,3.01-26.39,77.75h44.29l14.64-42.86h38.83l18.15,42.86h44.29l-18.5-43.51c17.01-3.02,28.9-14.65,35.68-34.89l1.58-4.74,6.51-18.74c2.24-6.32,3.5-12.13,3.8-17.45Z"/>
    <path class="cls-10" d="M550.78,593.69c.55-9.91-1.94-17.63-7.47-23.15-5.53-5.53-13.7-8.29-24.51-8.29h-73.13c-11.06,0-20.24,2.94-27.54,8.83-7.3,5.89-12.98,14.79-17.04,26.71l-22.55,66.34c-2.09,5.89-3.29,11.7-3.61,17.45-.55,9.91,1.94,17.63,7.48,23.15,5.53,5.53,13.7,8.29,24.51,8.29h73.13c11.06,0,20.24-2.94,27.54-8.83,7.3-5.89,12.98-14.79,17.04-26.71l22.55-66.34c2.09-5.89,3.29-11.7,3.61-17.45ZM501.07,613.07c-.16,2.87-.76,5.75-1.8,8.62l-13.09,38.77c-4.05,11.77-11.48,17.66-22.28,17.66h-23.18c-5.4,0-9.5-1.4-12.3-4.2-2.8-2.8-4.06-6.71-3.77-11.74.16-2.87.76-5.75,1.8-8.62l13.09-38.77c4.05-11.77,11.48-17.66,22.28-17.66h23.18c5.41,0,9.5,1.4,12.3,4.2,2.8,2.8,4.06,6.71,3.77,11.74Z"/>
    <path class="cls-10" d="M850.7,562.24l-87.1,101.87c-4.3,5.03-8.62,8.62-12.95,10.77-4.33,2.15-9.39,3.23-15.16,3.23l39.25-115.87h-55.04c-5.9,0-11.09,1.11-15.55,3.34-4.46,2.22-8.77,5.78-12.94,10.66l-75.2,87.87c-4.3,5.03-8.62,8.62-12.94,10.77-4.33,2.15-9.39,3.23-15.17,3.23l39.26-115.87h-44.29l-51.38,150.77h62.95c11.06,0,21.71-2.83,31.95-8.51,10.24-5.67,20.61-14.68,31.1-27.03l56.06-65.69-34.48,101.23h62.95c11.06,0,21.71-2.83,31.95-8.51,10.24-5.67,20.61-14.68,31.1-27.03l98.4-115.23h-52.77Z"/>
    <path class="cls-10" d="M1052.73,562.24l-34.48,101.23-11.6-65.69c-2.21-12.2-6.52-21.18-12.92-26.92-6.4-5.74-15.2-8.61-26.38-8.61h-51.45l-51.38,150.77h44.48l39.25-115.88h.19c4.77,0,8.2,1.04,10.29,3.12,2.08,2.08,3.61,5.71,4.58,10.88l18.63,101.87h63.9l51.19-150.77h-44.29Z"/>
    <polygon class="cls-10" points="1092.82 408.04 925.19 408.04 912.88 440.02 1080.5 440.02 1092.82 408.04"/>
    <polygon class="cls-10" points="1072.61 463.16 906.58 463.16 894.37 495.13 1060.4 495.13 1072.61 463.16"/>
    <polygon class="cls-10" points="1053.47 518.28 887.66 518.28 875.46 550.25 1041.27 550.25 1053.47 518.28"/>
    <path class="cls-10" d="M168.99,550.25h46.33l34.5-109.3h154.36c4.86,0,8.41.75,10.65,2.24,2.23,1.49,3.35,3.86,3.35,7.11,0,.67-.13,1.96-.4,3.86l-3.15,9.95c-1.58,4.87-3.78,8.23-6.6,10.06-2.83,1.83-7.13,2.74-12.92,2.74h-49.68l11.43-35.96-56.78,33.11-.98,2.84-23.07,73.34h46.33l12.82-40.43h40.61l21.49,40.43h46.33l-21.88-41.04c17.61-2.85,29.37-13.81,35.29-32.91l1.38-4.47,5.72-17.67c1.97-5.96,2.96-11.44,2.96-16.46,0-9.35-3.09-16.62-9.27-21.84-6.18-5.22-14.92-7.82-26.22-7.82H158.14l-10.25,32.91h55.4l-34.31,109.3Z"/>
    <polygon class="cls-10" points="499.78 550.25 544.73 408.04 498.21 408.04 453.45 550.25 499.78 550.25"/>
    <path class="cls-10" d="M647.64,440.95c4.86,0,8.41.75,10.65,2.24,2.23,1.49,3.35,3.86,3.35,7.11,0,.67-.13,1.96-.39,3.86l-3.16,9.95c-1.58,4.87-3.78,8.23-6.6,10.06-2.82,1.83-7.13,2.74-12.91,2.74h-49.48l11.43-35.96-56.78,33.11-.98,2.84-23.07,73.34h46.33l12.82-40.43h77.09c11.57,0,21.03-2.78,28.39-8.33,7.36-5.55,12.75-13.95,16.17-25.19l1.38-4.47,5.72-17.67c1.97-5.96,2.96-11.44,2.96-16.46,0-9.35-3.09-16.62-9.27-21.84-6.18-5.22-14.92-7.82-26.22-7.82h-110.6l-10.25,32.91h93.45Z"/>
    <path class="cls-10" d="M718.12,542.43c6.11,5.22,14.82,7.82,26.12,7.82h113.26l10.25-32.91h-90.2c-5.65,0-10.02-1.36-13.11-4.06-3.09-2.71-4.63-6.36-4.63-10.97,0-2.71.46-5.42,1.38-8.13l27.21-86.14h-46.33l-30.36,96.09c-1.84,5.55-2.76,11.04-2.76,16.46,0,9.35,3.06,16.62,9.17,21.84Z"/>
    <g>
      <polygon class="cls-9" points="914.7 255.11 387.63 255.11 406.08 173.25 933.15 173.25 914.7 255.11"/>
      <polygon class="cls-8" points="940.36 134.45 413.3 134.45 431.74 52.59 958.81 52.59 940.36 134.45"/>
      <polygon class="cls-7" points="887.48 380.01 360.41 380.01 378.85 298.14 905.92 298.14 887.48 380.01"/>
    </g>
    <g>
      <path class="cls-6" d="M428.07,742.31c-.17.4-.25.84-.25,1.32,0,1.31.93,1.97,2.78,1.97h11.84c5.19,0,7.79,2.14,7.79,6.42,0,1.38-.32,3.07-.96,5.06h.05l-.71,2.18c-.94,2.83-2.35,4.93-4.22,6.3s-4.27,2.05-7.21,2.05h-29.04l2.63-8.2h22.97c1.04,0,1.85-.16,2.43-.48s1.01-.94,1.32-1.85h-.05c.17-.44.25-.88.25-1.31,0-1.31-.93-1.97-2.78-1.97h-10.32c-2.9,0-5.14-.65-6.73-1.95s-2.38-3.11-2.38-5.44c0-1.28.25-2.65.76-4.1l.56-1.77c.94-2.83,2.35-4.93,4.22-6.3s4.27-2.05,7.21-2.05h29.04l-2.63,8.2h-22.97c-1.15,0-1.96.1-2.45.3-.49.2-.87.74-1.14,1.62Z"/>
      <path class="cls-3" d="M483.46,755.67c0,1.15.4,2.06,1.19,2.73s1.91,1.01,3.36,1.01h19.93l-2.63,8.2h-25.85c-2.9,0-5.13-.65-6.7-1.95-1.57-1.3-2.35-3.11-2.35-5.44,0-1.35.23-2.71.71-4.1l7.79-23.93h37.89l-2.68,8.2h-26l-4.3,13.25c-.23.67-.35,1.35-.35,2.02ZM492.11,745.45h17.71l-2.63,8.2h-23.37l8.3-8.2Z"/>
      <path class="cls-4" d="M575.77,739.58c0,1.25-.25,2.61-.76,4.1l-1.47,4.4-.35,1.11c-1.52,4.76-4.54,7.49-9.05,8.2l5.62,10.22h-11.89l-5.51-10.07h-10.42l-3.29,10.07h-11.89l5.92-18.26.25-.71,14.57-8.25-2.94,8.95h12.75c1.48,0,2.59-.23,3.31-.68.72-.46,1.29-1.29,1.69-2.5l.81-2.48c.07-.47.1-.79.1-.96,0-.81-.29-1.4-.86-1.77s-1.48-.56-2.73-.56h-24.03l2.63-8.2h28.43c2.9,0,5.14.65,6.73,1.95,1.58,1.3,2.38,3.11,2.38,5.44Z"/>
      <path class="cls-2" d="M600.15,732.19h11.94l-11.53,35.41h-11.89l11.48-35.41Z"/>
      <path class="cls-1" d="M638.14,755.67c0,1.15.4,2.06,1.19,2.73s1.91,1.01,3.36,1.01h19.93l-2.63,8.2h-25.85c-2.9,0-5.13-.65-6.7-1.95-1.57-1.3-2.35-3.11-2.35-5.44,0-1.35.23-2.71.71-4.1l7.79-23.93h37.89l-2.68,8.2h-26l-4.3,13.25c-.23.67-.35,1.35-.35,2.02ZM646.79,745.45h17.71l-2.63,8.2h-23.37l8.3-8.2Z"/>
      <path class="cls-5" d="M701.52,742.31c-.17.4-.25.84-.25,1.32,0,1.31.93,1.97,2.78,1.97h11.84c5.19,0,7.79,2.14,7.79,6.42,0,1.38-.32,3.07-.96,5.06h.05l-.71,2.18c-.94,2.83-2.35,4.93-4.22,6.3s-4.27,2.05-7.21,2.05h-29.04l2.63-8.2h22.97c1.04,0,1.85-.16,2.43-.48s1.01-.94,1.32-1.85h-.05c.17-.44.25-.88.25-1.31,0-1.31-.93-1.97-2.78-1.97h-10.32c-2.9,0-5.14-.65-6.73-1.95s-2.38-3.11-2.38-5.44c0-1.28.25-2.65.76-4.1l.56-1.77c.94-2.83,2.35-4.93,4.22-6.3s4.27-2.05,7.21-2.05h29.04l-2.63,8.2h-22.97c-1.15,0-1.96.1-2.45.3-.49.2-.87.74-1.14,1.62Z"/>
    </g>
  </g>
</svg>